<?xml version="1.0" standalone="no"?>
<!DOCTYPE svg PUBLIC "-//W3C//DTD SVG 20010904//EN"
 "http://www.w3.org/TR/2001/REC-SVG-20010904/DTD/svg10.dtd">
<svg version="1.0" xmlns="http://www.w3.org/2000/svg"
 width="1080.000000pt" height="1080.000000pt" viewBox="0 0 1080.000000 1080.000000"
 preserveAspectRatio="xMidYMid meet">
<metadata>
Created by potrace 1.14, written by Peter Selinger 2001-2017
</metadata>
<g transform="translate(0.000000,1080.000000) scale(0.100000,-0.100000)"
fill="#000000" stroke="none">
<path d="M5236 9813 c-1 -1 -20 -5 -41 -9 -21 -3 -50 -10 -64 -16 -14 -5 -27
-9 -29 -8 -4 3 -66 -23 -72 -30 -3 -3 -16 -11 -30 -18 -14 -6 -56 -30 -95 -52
-38 -22 -92 -52 -120 -66 -27 -15 -51 -30 -53 -35 -2 -5 -9 -9 -16 -9 -8 0
-25 -9 -40 -21 -14 -11 -26 -17 -26 -13 0 4 -8 0 -17 -8 -10 -8 -31 -22 -48
-30 -48 -23 -79 -42 -87 -53 -4 -5 -8 -6 -8 -2 0 4 -17 -4 -37 -18 -21 -14
-43 -25 -49 -25 -7 0 -14 -4 -16 -8 -1 -5 -32 -24 -68 -44 -36 -19 -82 -45
-102 -56 -94 -54 -108 -61 -108 -55 0 4 -7 -2 -15 -13 -8 -10 -15 -14 -15 -9
0 6 -3 5 -8 -1 -4 -6 -34 -26 -67 -43 -128 -69 -140 -76 -143 -83 -2 -5 -10
-8 -17 -8 -8 0 -20 -6 -27 -12 -7 -7 -29 -21 -48 -31 -35 -17 -89 -47 -165
-91 -22 -13 -67 -38 -100 -56 -33 -18 -67 -38 -75 -44 -8 -6 -37 -22 -65 -36
-27 -14 -56 -31 -63 -37 -7 -7 -20 -13 -28 -13 -8 0 -17 -6 -20 -13 -3 -8 -10
-14 -17 -14 -7 0 -47 -21 -90 -46 -43 -26 -82 -47 -87 -47 -5 0 -22 -12 -39
-26 -17 -14 -31 -23 -31 -19 0 4 -6 3 -12 -2 -7 -6 -33 -22 -58 -35 -25 -14
-62 -35 -82 -47 -91 -51 -194 -109 -248 -137 -19 -11 -40 -25 -48 -31 -7 -7
-24 -16 -38 -19 -13 -3 -24 -10 -24 -15 0 -5 -3 -8 -7 -7 -5 1 -27 -10 -50
-25 -24 -15 -45 -27 -47 -27 -3 0 -28 -13 -56 -30 -27 -16 -50 -26 -50 -22 0
4 -5 -1 -11 -10 -5 -10 -14 -18 -20 -18 -5 0 -27 -11 -49 -25 -22 -14 -40 -22
-40 -18 0 5 -4 3 -8 -3 -6 -10 -46 -33 -172 -102 -25 -13 -48 -29 -52 -36 -4
-6 -8 -7 -8 -2 0 5 -7 3 -15 -4 -8 -7 -15 -9 -15 -6 0 4 -9 -1 -19 -11 -11
-10 -46 -31 -78 -48 -32 -16 -77 -42 -100 -58 -24 -15 -43 -24 -43 -20 0 4 -4
3 -8 -2 -4 -6 -24 -19 -44 -30 -21 -11 -38 -24 -38 -29 0 -5 -3 -6 -7 -3 -3 4
-17 0 -31 -9 -13 -9 -49 -30 -81 -46 -31 -17 -64 -38 -73 -46 -10 -8 -18 -12
-18 -8 0 14 -128 -121 -134 -142 -4 -13 -12 -19 -18 -16 -7 5 -9 1 -5 -9 3
-10 3 -17 -1 -17 -8 0 -33 -51 -36 -75 -1 -8 -5 -18 -9 -21 -4 -4 -7 -18 -7
-30 0 -13 -3 -25 -7 -27 -14 -9 -7 -4245 6 -4302 24 -105 62 -173 135 -247 64
-64 91 -88 100 -88 3 0 33 -17 68 -37 35 -21 65 -38 68 -38 3 -1 21 -11 40
-23 19 -12 47 -28 63 -35 15 -6 27 -16 27 -20 0 -5 5 -5 10 -2 6 3 10 1 10 -5
0 -6 5 -8 10 -5 5 3 10 1 10 -4 0 -6 7 -11 15 -11 8 0 15 -4 15 -8 0 -5 18
-15 40 -22 22 -7 38 -15 35 -18 -2 -3 25 -20 62 -38 37 -19 70 -40 75 -46 4
-7 8 -9 8 -5 0 5 12 -1 26 -12 15 -11 30 -18 35 -15 5 3 9 1 9 -4 0 -5 8 -12
17 -15 10 -4 37 -18 61 -32 23 -14 61 -36 85 -50 23 -14 50 -28 59 -32 10 -3
18 -9 18 -14 0 -5 9 -9 20 -9 11 0 20 -3 20 -7 0 -5 10 -13 23 -18 32 -15 111
-59 117 -65 3 -3 30 -18 60 -34 30 -16 58 -34 62 -40 4 -6 8 -7 8 -2 0 5 6 4
13 -2 11 -9 25 -17 125 -73 20 -12 51 -29 68 -40 17 -10 34 -16 37 -12 4 3 7
1 7 -5 0 -7 15 -19 33 -27 17 -8 46 -23 62 -33 17 -10 59 -34 95 -53 36 -19
67 -37 70 -40 3 -3 30 -19 60 -36 91 -49 105 -58 112 -68 4 -5 8 -7 8 -2 0 4
18 -4 40 -18 22 -14 64 -38 95 -55 79 -43 99 -54 105 -60 3 -3 19 -12 35 -20
17 -8 32 -17 35 -20 3 -3 31 -18 63 -35 31 -16 57 -33 57 -37 0 -4 3 -7 8 -6
12 3 62 -25 62 -35 0 -5 6 -7 14 -4 8 3 16 2 18 -2 2 -5 39 -28 83 -51 44 -24
82 -47 85 -51 3 -3 15 -9 27 -13 13 -4 29 -13 36 -19 7 -7 35 -23 62 -37 28
-14 56 -30 63 -37 8 -7 18 -11 23 -8 5 4 9 2 9 -2 0 -5 22 -20 50 -34 27 -13
50 -27 50 -31 0 -5 5 -8 11 -8 6 0 37 -15 68 -34 31 -18 76 -45 101 -58 93
-52 125 -70 136 -79 6 -5 14 -6 17 -2 4 3 7 2 7 -4 0 -5 29 -25 66 -44 36 -19
77 -40 92 -48 15 -8 29 -17 32 -21 3 -3 22 -14 42 -23 20 -10 40 -22 43 -27 4
-6 11 -8 16 -5 5 4 9 2 9 -4 0 -5 16 -15 35 -22 19 -7 35 -16 35 -19 0 -4 16
-12 35 -20 19 -8 35 -17 35 -22 0 -4 9 -8 19 -8 11 0 21 -4 23 -9 2 -5 17 -11
33 -13 17 -2 33 -7 36 -11 3 -5 25 -9 47 -10 23 -1 42 -5 42 -8 0 -9 21 -6 38
4 6 5 12 4 12 -1 0 -5 10 -8 23 -6 87 13 103 17 113 25 6 5 13 6 16 3 7 -7
200 93 210 109 4 7 8 8 8 4 0 -10 71 31 82 47 4 6 8 7 8 3 0 -5 14 1 30 13 17
12 30 19 30 15 0 -3 10 3 22 14 11 11 25 18 30 15 4 -3 8 -1 8 4 0 4 16 14 35
22 19 8 35 17 35 22 0 4 5 8 11 8 6 0 48 22 95 50 46 27 84 46 84 42 0 -4 4
-2 8 3 8 12 20 19 132 82 47 26 94 53 105 60 11 7 27 16 35 20 8 4 52 29 98
55 46 26 88 48 93 48 5 0 9 4 9 8 0 4 12 13 28 19 46 20 157 84 164 96 4 7 8
8 8 3 0 -5 6 -4 13 2 11 10 78 47 142 80 17 8 32 19 35 22 3 4 15 10 27 14 13
4 29 13 35 19 7 7 39 25 71 42 31 16 57 33 57 37 0 4 5 8 11 8 6 0 52 23 103
52 50 28 111 62 136 76 25 14 56 33 70 42 14 10 28 18 33 18 4 1 50 26 102 57
52 30 97 55 100 55 4 0 26 14 51 30 24 17 44 28 44 24 0 -4 9 1 20 11 11 10
20 14 20 9 0 -5 4 -4 8 2 4 6 33 25 64 42 32 16 71 40 88 52 16 12 30 18 30
14 0 -3 7 -1 15 6 16 13 83 52 125 73 14 6 27 14 30 17 3 3 26 17 51 30 101
54 224 124 229 130 3 4 28 17 55 30 28 13 52 26 55 29 3 3 16 12 29 19 13 8
40 23 60 34 20 12 56 32 81 45 25 13 52 28 60 33 37 23 260 150 265 150 2 0
30 17 61 38 31 20 64 42 73 47 9 6 19 15 24 22 4 6 20 24 35 40 15 15 34 42
42 58 8 17 17 32 20 35 14 14 39 73 34 81 -3 5 -1 9 3 9 5 0 9 8 10 18 0 9 4
28 8 42 4 14 8 972 9 2130 2 2304 5 2171 -58 2299 -38 80 -131 177 -211 222
-33 19 -63 33 -67 31 -5 -1 -8 2 -8 6 0 4 -25 21 -55 37 -30 15 -55 32 -55 37
0 5 -4 7 -8 4 -5 -3 -25 6 -45 19 -20 14 -41 25 -46 25 -6 0 -11 5 -11 12 0 6
-3 8 -7 5 -3 -4 -12 -2 -20 4 -17 15 -68 43 -115 64 -21 10 -38 20 -38 24 0 4
-16 13 -35 21 -19 8 -35 17 -35 21 0 3 -20 14 -45 23 -25 10 -45 21 -45 25 0
5 -20 16 -45 27 -25 10 -45 22 -45 26 0 4 -7 8 -15 8 -8 0 -15 4 -15 10 0 5
-3 9 -7 8 -5 -2 -44 18 -88 43 -44 26 -83 46 -86 45 -4 0 -15 6 -25 14 -11 9
-39 26 -64 40 -25 13 -47 26 -50 29 -3 4 -16 12 -30 18 -14 7 -54 29 -90 49
-36 20 -83 47 -105 59 -73 40 -90 50 -107 64 -10 8 -18 10 -18 5 0 -5 -4 -4
-8 1 -4 6 -27 21 -52 34 -25 14 -47 27 -50 30 -4 5 -51 31 -145 80 -16 9 -35
22 -43 29 -7 7 -18 10 -23 7 -5 -4 -9 -2 -9 2 0 5 -22 20 -50 34 -27 13 -50
27 -50 32 0 4 -5 7 -11 7 -6 0 -50 23 -97 51 -48 28 -91 51 -96 52 -6 1 -19
10 -30 19 -10 10 -23 15 -28 12 -4 -3 -8 -1 -8 5 0 6 -11 13 -25 17 -14 3 -25
10 -25 16 0 5 -4 6 -10 3 -5 -3 -10 -2 -10 3 0 5 -8 12 -17 16 -10 3 -45 22
-78 41 -33 19 -76 43 -95 52 -19 10 -41 24 -48 30 -7 7 -24 16 -38 19 -13 3
-24 10 -24 14 0 4 -8 10 -17 14 -10 3 -40 19 -68 35 -53 32 -97 53 -104 51 -2
-1 -7 2 -10 7 -9 13 -91 64 -91 57 0 -4 -7 -1 -15 6 -21 17 -76 49 -97 56 -10
4 -18 11 -18 17 0 6 -3 7 -6 4 -4 -4 -19 2 -34 13 -14 10 -33 20 -41 22 -8 2
-22 12 -31 22 -10 10 -18 16 -18 12 0 -3 -18 5 -39 18 -21 14 -41 22 -44 19
-3 -3 -12 4 -19 16 -7 12 -20 21 -28 21 -9 0 -24 6 -35 14 -11 7 -47 28 -80
46 -33 18 -63 38 -67 44 -4 6 -8 7 -8 3 0 -5 -13 1 -29 12 -16 12 -31 21 -34
21 -2 0 -43 23 -91 50 -48 28 -91 50 -96 50 -6 0 -10 4 -10 9 0 5 -8 11 -17
15 -10 3 -49 17 -88 30 -38 13 -80 23 -92 21 -13 -1 -23 1 -23 4 0 5 -79 9
-84 4z m159 -390 c38 -19 72 -38 75 -42 3 -3 21 -14 40 -23 19 -10 62 -34 95
-53 33 -20 83 -47 110 -62 28 -14 53 -30 56 -35 3 -5 9 -8 12 -6 4 1 15 -4 25
-13 10 -8 23 -14 30 -11 7 2 12 -1 12 -6 0 -6 26 -23 58 -38 31 -16 59 -31 62
-34 8 -10 192 -110 201 -110 5 0 9 -4 9 -9 0 -5 8 -11 18 -14 9 -4 35 -17 57
-29 22 -13 72 -41 110 -63 39 -22 88 -50 110 -63 22 -12 48 -25 58 -29 9 -3
17 -10 17 -15 0 -5 5 -6 10 -3 6 3 10 3 10 -2 0 -4 23 -19 50 -32 28 -14 50
-29 50 -35 0 -5 3 -6 6 -3 4 3 18 -2 32 -13 13 -11 28 -17 33 -14 5 3 9 1 9
-4 0 -5 8 -12 18 -15 23 -8 75 -40 84 -52 5 -7 8 -7 8 0 0 7 3 7 8 0 4 -5 23
-18 42 -29 52 -28 98 -54 126 -72 13 -9 24 -13 24 -10 0 4 10 -2 22 -13 11
-11 25 -18 30 -15 4 3 8 0 8 -7 0 -7 3 -10 6 -6 3 3 14 -2 25 -11 11 -9 23
-17 27 -18 4 0 25 -11 47 -25 22 -13 43 -23 48 -21 4 1 7 -2 7 -8 0 -5 7 -10
15 -10 8 0 15 -5 15 -12 0 -6 3 -8 6 -5 4 3 18 -3 32 -13 13 -11 30 -20 36
-20 7 0 22 -9 34 -20 12 -12 22 -18 22 -15 0 4 13 -3 29 -14 15 -11 31 -18 35
-14 3 3 6 1 6 -5 0 -7 7 -12 15 -12 8 0 15 -5 15 -11 0 -5 5 -7 10 -4 6 3 10
1 10 -4 0 -6 5 -11 12 -11 6 0 34 -15 62 -32 28 -18 53 -33 56 -33 11 -1 285
-159 288 -167 2 -4 7 -6 12 -3 5 3 15 0 22 -7 15 -14 20 -17 123 -73 39 -21
75 -41 80 -45 6 -4 30 -19 55 -32 90 -50 126 -70 158 -90 17 -11 32 -16 32
-11 0 4 4 3 8 -2 7 -11 52 -39 127 -80 22 -12 56 -31 75 -42 19 -11 62 -35 95
-53 33 -19 62 -36 65 -39 3 -4 35 -22 72 -41 95 -49 137 -80 156 -115 10 -16
20 -32 23 -35 3 -3 5 -950 5 -2105 -1 -1790 -3 -2104 -15 -2125 -18 -32 -66
-80 -80 -80 -6 0 -11 -5 -11 -12 0 -6 -3 -8 -6 -5 -4 4 -19 -2 -33 -11 -14
-10 -37 -24 -51 -31 -14 -7 -38 -20 -55 -29 -16 -10 -93 -53 -170 -97 -77 -44
-148 -84 -157 -90 -10 -5 -43 -23 -75 -40 -32 -16 -60 -33 -63 -36 -3 -3 -25
-17 -50 -29 -25 -12 -47 -26 -50 -29 -3 -4 -20 -13 -37 -20 -18 -8 -33 -17
-33 -22 0 -5 -9 -9 -20 -9 -10 0 -24 -8 -29 -18 -6 -9 -11 -14 -11 -10 0 4
-39 -15 -86 -42 -47 -28 -90 -50 -95 -50 -5 0 -9 -5 -9 -12 0 -6 -3 -8 -6 -5
-4 3 -18 -2 -32 -13 -13 -11 -28 -18 -32 -15 -4 3 -10 -2 -14 -10 -3 -8 -10
-15 -15 -15 -6 0 -53 -25 -106 -55 -52 -30 -98 -55 -101 -55 -4 0 -22 -11 -41
-26 -18 -14 -33 -22 -33 -18 0 4 -8 0 -18 -9 -9 -8 -28 -21 -42 -27 -14 -6
-52 -26 -85 -46 -33 -19 -71 -40 -85 -47 -14 -6 -27 -14 -30 -17 -6 -6 -42
-27 -95 -54 -22 -12 -42 -24 -45 -27 -5 -5 -29 -18 -112 -60 -20 -10 -40 -23
-43 -29 -4 -6 -11 -8 -16 -5 -5 4 -9 1 -9 -4 0 -6 -7 -11 -15 -11 -8 0 -15 -4
-15 -9 0 -7 -36 -22 -49 -20 -2 0 -7 -3 -10 -9 -3 -5 -37 -26 -76 -47 -38 -21
-73 -44 -77 -49 -4 -6 -8 -7 -8 -3 0 5 -13 -1 -29 -12 -15 -11 -39 -25 -52
-31 -13 -6 -40 -20 -59 -32 -68 -41 -136 -79 -180 -100 -25 -12 -50 -29 -57
-38 -7 -8 -13 -11 -13 -7 0 5 -13 -1 -30 -13 -16 -12 -30 -18 -30 -15 0 4 -7
-1 -16 -9 -8 -9 -22 -16 -30 -16 -8 0 -14 -4 -14 -9 0 -5 -15 -14 -32 -22 -18
-7 -35 -15 -38 -19 -3 -3 -22 -14 -42 -25 -21 -11 -38 -23 -38 -28 0 -4 -4 -6
-9 -2 -5 3 -16 -1 -24 -9 -8 -8 -17 -13 -19 -10 -3 2 -11 -2 -18 -11 -7 -8
-19 -15 -26 -15 -8 0 -14 -5 -14 -11 0 -5 -4 -8 -9 -4 -5 3 -12 1 -16 -5 -3
-6 -23 -18 -43 -29 -81 -40 -277 -154 -284 -165 -4 -6 -8 -8 -8 -4 0 4 -34
-13 -76 -37 -42 -25 -79 -45 -83 -45 -5 0 -21 -10 -37 -22 -16 -13 -30 -21
-31 -18 -1 3 -11 -2 -21 -10 -24 -20 -38 -23 -91 -22 -44 1 -101 18 -101 31 0
4 -16 13 -35 20 -19 7 -35 17 -35 22 0 5 -9 9 -19 9 -11 0 -21 3 -23 8 -1 4
-25 18 -53 32 -27 14 -58 33 -69 42 -10 10 -23 15 -28 12 -4 -3 -8 0 -8 5 0 6
-4 11 -9 11 -5 0 -36 15 -68 34 -161 94 -346 196 -354 196 -5 0 -9 3 -9 8 0 4
-15 13 -32 21 -18 8 -35 17 -38 20 -5 6 -70 42 -117 65 -13 6 -23 14 -23 19 0
4 -6 7 -13 7 -7 0 -34 13 -60 30 -26 16 -47 26 -47 22 0 -4 -4 -2 -8 4 -6 10
-28 23 -92 56 -14 7 -27 15 -30 18 -6 6 -44 27 -120 67 -30 15 -56 31 -58 36
-2 4 -10 7 -17 7 -7 0 -15 3 -17 8 -1 4 -37 25 -78 46 -41 22 -77 42 -80 45
-3 3 -21 14 -40 25 -61 32 -123 66 -185 102 -33 19 -68 38 -77 41 -10 3 -18
10 -18 15 0 5 -4 7 -8 4 -5 -3 -18 2 -28 12 -11 9 -26 18 -34 20 -8 2 -21 10
-27 19 -7 9 -13 13 -13 9 0 -5 -6 -3 -13 3 -8 6 -17 8 -20 4 -4 -3 -7 -1 -7 5
0 7 -18 20 -40 29 -22 10 -40 21 -40 25 0 5 -6 8 -14 8 -7 0 -25 9 -40 21 -14
11 -26 17 -26 14 0 -4 -7 -1 -16 6 -22 18 -53 36 -86 50 -16 6 -28 15 -28 20
0 5 -3 8 -7 7 -5 -1 -35 13 -68 32 -33 19 -62 33 -64 32 -2 -2 -7 0 -10 5 -6
9 -96 61 -226 133 -33 18 -63 37 -66 43 -4 5 -12 6 -18 3 -6 -4 -11 -3 -11 3
0 6 -11 13 -25 17 -14 3 -25 10 -25 14 0 5 -10 12 -22 16 -13 4 -25 10 -28 14
-3 4 -34 22 -70 41 -36 18 -67 36 -70 40 -3 3 -15 9 -27 13 -13 4 -23 12 -23
17 0 6 -4 8 -9 5 -5 -3 -19 2 -32 12 -13 10 -45 29 -72 42 -26 14 -47 28 -47
32 0 3 -13 9 -29 13 -16 3 -32 13 -35 21 -3 8 -15 14 -26 14 -11 0 -20 5 -20
10 0 6 -5 10 -11 10 -5 0 -54 26 -107 57 -53 32 -101 58 -105 58 -4 0 -11 6
-16 13 -5 8 -11 13 -15 13 -16 -3 -68 32 -83 57 -10 15 -22 30 -28 34 -7 5 -9
686 -8 2110 1 1157 3 2111 4 2121 3 23 96 117 116 118 13 0 202 109 208 119 3
6 15 10 26 10 10 0 19 5 19 10 0 6 5 10 11 10 6 0 44 20 84 44 40 25 76 42 79
39 3 -4 6 -1 6 5 0 7 5 12 11 12 6 0 24 9 40 21 16 11 29 17 29 12 0 -4 4 -3
8 3 4 6 32 24 62 41 30 16 73 40 95 53 22 13 60 34 85 48 25 13 50 29 56 33 6
5 14 6 17 2 4 -3 7 -1 7 5 0 6 10 14 23 18 12 3 29 12 37 19 8 6 35 23 60 36
25 13 47 26 50 29 3 3 24 14 47 25 24 11 43 23 43 28 0 4 7 7 15 7 8 0 15 5
15 12 0 6 3 9 6 5 3 -3 24 5 45 19 21 13 39 22 39 19 0 -3 10 3 22 14 11 11
25 18 30 15 4 -3 8 0 8 5 0 6 7 11 15 11 8 0 15 5 15 11 0 5 5 7 10 4 6 -3 10
-2 10 3 0 6 11 13 25 16 14 4 25 10 25 15 0 5 14 12 30 16 17 4 30 11 30 16 0
5 11 11 25 15 14 3 25 10 25 14 0 5 6 10 13 12 19 5 331 181 338 191 3 4 12 9
20 11 13 2 98 49 211 117 25 15 49 25 52 22 3 -4 6 -1 6 5 0 7 4 12 9 12 5 0
42 20 83 45 42 25 80 45 85 45 6 0 16 7 23 15 7 8 16 12 21 9 5 -3 9 -1 9 4 0
5 27 22 60 38 33 16 60 32 60 37 0 4 5 7 10 7 6 0 61 29 123 64 62 36 116 65
121 65 5 -1 12 3 15 8 3 4 17 14 31 22 111 64 143 81 151 81 5 0 9 5 9 10 0 6
7 10 15 10 8 0 15 5 15 12 0 6 3 8 6 5 4 -4 19 2 34 13 15 11 30 17 34 13 3
-3 6 -1 6 5 0 7 4 12 9 12 5 0 44 20 85 45 42 25 81 45 86 45 6 0 10 5 10 11
0 5 5 7 10 4 6 -3 10 -3 10 2 0 4 23 19 50 32 28 14 50 29 50 33 0 4 5 8 11 8
14 0 227 119 235 131 3 5 10 7 15 4 5 -4 17 -2 26 3 27 16 82 4 158 -35z"/>
<path d="M5229 8916 c-2 -2 -27 -6 -54 -10 -55 -6 -113 -23 -132 -39 -7 -5
-13 -6 -13 -2 0 5 -8 1 -17 -8 -10 -8 -20 -15 -23 -14 -13 3 -101 -63 -129
-97 -9 -10 -25 -28 -36 -40 -58 -60 -112 -197 -119 -296 -4 -68 7 -160 25
-207 6 -16 10 -30 10 -33 0 -3 14 -30 31 -60 42 -74 98 -141 150 -176 24 -16
45 -32 46 -37 2 -4 8 -5 13 -1 5 3 9 1 9 -5 0 -6 37 -22 83 -36 146 -47 202
-48 344 -4 81 25 152 70 224 143 55 55 125 169 114 186 -3 5 -1 11 5 15 30 19
43 205 20 296 -13 56 -61 159 -72 159 -5 0 -7 4 -3 9 10 18 -116 141 -183 178
-78 44 -123 60 -188 68 -27 4 -61 8 -75 11 -14 2 -28 2 -30 0z"/>
<path d="M4681 7668 c-69 -21 -121 -49 -186 -100 -102 -81 -158 -140 -288
-303 -48 -60 -93 -117 -100 -125 -7 -8 -29 -35 -48 -60 -19 -25 -36 -47 -40
-50 -3 -3 -18 -23 -35 -45 -16 -22 -33 -45 -39 -52 -25 -30 -34 -44 -96 -138
-77 -118 -133 -233 -162 -330 -40 -133 -26 -341 34 -500 11 -30 20 -58 20 -62
0 -5 7 -18 15 -30 8 -13 12 -23 9 -23 -3 0 0 -10 7 -22 7 -13 11 -26 10 -30
-1 -5 2 -8 6 -8 5 0 16 -18 26 -40 46 -104 264 -459 287 -468 5 -2 9 -9 9 -15
0 -7 11 -24 24 -38 13 -14 29 -36 36 -49 30 -56 133 -153 198 -186 50 -26 125
-39 147 -25 10 6 15 7 34 10 17 2 53 62 62 103 17 74 -30 208 -113 324 -18 25
-37 54 -43 63 -5 9 -22 30 -37 46 -16 17 -28 35 -28 42 0 7 -4 13 -9 13 -7 0
-22 21 -86 119 -41 64 -115 194 -115 204 0 7 -7 21 -15 31 -8 11 -15 28 -15
38 0 10 -4 18 -8 18 -4 0 -8 8 -9 18 -1 14 -9 90 -14 137 -1 8 3 33 15 90 11
52 99 178 293 418 57 70 103 132 103 138 0 6 4 8 8 5 5 -3 14 5 21 17 14 26
66 52 100 49 28 -2 53 -20 46 -32 -3 -5 -1 -11 4 -14 19 -12 -33 -182 -79
-256 -5 -8 -20 -35 -32 -60 -13 -25 -29 -51 -35 -58 -7 -7 -13 -18 -13 -24 0
-5 -10 -24 -22 -41 -13 -18 -21 -32 -19 -32 2 0 1 -10 -3 -22 -4 -13 -11 -23
-15 -23 -4 0 -8 -6 -9 -12 0 -7 -3 -23 -5 -35 -6 -25 37 -101 119 -210 30 -40
54 -77 54 -83 0 -5 4 -10 8 -10 5 0 30 -29 56 -65 26 -36 55 -72 63 -80 8 -8
12 -15 9 -15 -3 0 2 -8 12 -18 21 -23 27 -31 122 -157 41 -55 81 -106 87 -113
7 -7 34 -41 60 -75 26 -34 51 -66 55 -72 5 -5 31 -39 58 -75 92 -119 105 -133
155 -183 115 -115 224 -127 405 -45 73 33 183 98 188 110 2 4 8 6 13 2 5 -3
12 2 15 10 3 9 10 14 14 11 4 -2 15 4 25 15 10 11 24 20 32 20 7 0 13 4 13 8
0 4 15 16 33 27 17 10 34 21 37 25 9 11 312 220 319 220 4 0 16 9 26 20 10 11
24 20 32 20 7 0 13 4 13 9 0 5 10 13 23 17 12 4 24 10 27 13 3 4 140 96 305
206 165 109 323 215 350 235 53 38 145 80 176 80 11 0 19 4 19 8 0 9 65 7 80
-3 5 -3 11 -1 15 4 7 12 81 -25 110 -54 11 -12 28 -34 37 -50 30 -50 188 -374
188 -385 0 -6 4 -10 10 -10 5 0 9 -3 8 -7 -2 -5 26 -66 60 -138 35 -71 81
-166 103 -211 21 -44 39 -86 39 -92 0 -7 5 -12 10 -12 6 0 10 -4 10 -9 0 -5
28 -67 61 -138 34 -70 60 -130 59 -132 -1 -2 2 -7 7 -10 7 -5 86 -159 87 -171
2 -15 171 -346 178 -348 4 -2 8 -9 8 -15 0 -13 101 -110 108 -102 3 2 11 0 19
-6 7 -6 13 -8 13 -3 0 5 4 3 8 -3 14 -22 106 -19 139 5 34 24 62 62 66 89 1
10 5 23 9 28 19 32 -13 267 -48 351 -8 19 -15 37 -15 41 -3 15 -90 263 -109
308 -4 11 -18 47 -30 80 -12 33 -26 69 -30 80 -28 68 -92 242 -93 253 0 6 -4
12 -9 12 -4 0 -8 6 -8 14 0 12 -11 42 -51 144 -19 47 -32 78 -38 92 -4 8 -14
36 -22 63 -7 26 -17 47 -21 47 -4 0 -8 9 -8 19 0 11 -5 23 -11 26 -6 4 -8 13
-5 20 3 8 2 15 -2 17 -6 3 -126 293 -127 308 0 3 -3 10 -7 16 -4 6 -27 63 -52
128 -26 65 -52 132 -60 149 -8 18 -28 69 -45 114 -38 102 -62 154 -78 171 -7
7 -13 17 -13 21 0 8 -82 94 -117 122 -28 23 -124 67 -164 75 -42 9 -120 9
-178 1 -50 -8 -161 -48 -161 -59 0 -5 -4 -8 -9 -8 -15 0 -255 -168 -328 -230
-6 -5 -69 -51 -140 -102 -70 -50 -131 -97 -135 -102 -4 -6 -8 -8 -8 -4 0 4 -8
1 -17 -7 -22 -17 -132 -96 -288 -205 -38 -27 -75 -54 -82 -60 -7 -5 -17 -10
-23 -10 -5 0 -10 -4 -10 -9 0 -5 -8 -12 -18 -15 -10 -4 -28 -15 -39 -25 -11
-10 -34 -26 -51 -35 -18 -9 -32 -21 -32 -26 0 -6 -5 -10 -10 -10 -6 0 -50 -26
-98 -58 -145 -98 -258 -162 -283 -162 -25 0 -31 5 -85 75 -32 42 -130 202
-181 295 -17 30 -45 82 -63 115 -18 33 -37 66 -43 73 -5 6 -6 12 -1 12 5 0 4
4 -3 8 -17 11 -24 56 -22 142 5 191 3 429 -4 470 -16 96 -41 187 -68 245 -15
33 -29 65 -30 70 -3 11 -1 9 -69 92 -56 69 -145 135 -235 175 -101 45 -187 53
-274 26z"/>
<path d="M3925 7571 c-3 -2 -22 -5 -42 -7 -68 -5 -128 -12 -128 -14 0 -2 -14
-5 -57 -13 -96 -19 -364 -117 -379 -140 -3 -5 -8 -8 -10 -6 -13 8 -192 -108
-279 -181 -64 -53 -202 -191 -232 -230 -14 -19 -36 -46 -48 -60 -12 -14 -29
-37 -38 -52 -9 -16 -20 -28 -24 -28 -4 0 -8 -4 -8 -9 0 -6 -19 -38 -42 -73
-54 -81 -60 -91 -123 -215 -43 -84 -82 -168 -90 -193 -1 -3 -7 -18 -14 -35
-13 -29 -101 -277 -101 -282 0 -2 0 -4 -1 -5 0 -2 -2 -11 -5 -20 -6 -25 -9
-37 -23 -88 -7 -25 -15 -53 -17 -62 -2 -10 -6 -27 -9 -38 -7 -30 -22 -99 -30
-140 -1 -3 -4 -14 -7 -25 -4 -11 -9 -36 -12 -55 -2 -19 -7 -55 -11 -80 -3 -25
-8 -58 -10 -75 -2 -16 -5 -30 -6 -30 -1 0 -3 -13 -4 -30 -2 -16 -5 -48 -9 -69
-5 -36 -4 -37 9 -20 8 10 15 24 15 31 0 7 11 36 24 65 14 29 26 60 28 68 2 8
5 17 8 20 10 10 50 101 50 114 0 8 3 16 8 18 4 2 23 35 41 73 19 39 37 72 40
75 3 3 17 27 31 55 14 27 35 64 47 81 12 18 19 35 15 38 -3 3 -1 6 4 6 5 0 20
20 34 45 14 25 28 45 32 45 5 0 8 7 8 15 0 9 7 18 15 21 8 4 15 11 15 17 0 10
117 168 164 221 14 16 26 34 26 39 0 6 2 8 5 6 2 -3 40 29 83 71 74 73 220
190 236 190 5 0 21 9 37 21 16 11 29 17 29 12 0 -4 4 -3 8 3 10 14 89 50 142
64 25 6 52 14 60 17 19 7 35 10 89 17 43 5 62 20 67 53 5 31 133 274 154 293
3 3 18 23 33 46 15 22 36 50 48 62 11 12 17 22 15 22 -16 0 275 297 318 325
14 10 26 21 26 25 0 8 -198 9 -205 1z"/>
<path d="M3460 6360 c-11 -11 -23 -20 -28 -20 -4 0 -22 -12 -39 -27 -80 -72
-159 -140 -179 -156 -13 -10 -63 -64 -111 -121 -113 -133 -111 -130 -160 -206
-23 -36 -46 -70 -50 -75 -18 -23 -46 -74 -83 -148 -21 -43 -44 -84 -49 -91 -6
-7 -8 -16 -4 -19 3 -4 0 -14 -8 -23 -7 -9 -14 -23 -15 -31 -1 -8 -6 -22 -10
-31 -4 -9 -8 -20 -9 -24 -2 -5 -4 -10 -5 -13 -1 -3 -3 -8 -5 -12 -1 -5 -4 -15
-8 -23 -26 -68 -73 -253 -83 -325 -2 -16 -6 -43 -8 -60 -25 -153 -20 -473 10
-615 l7 -35 -37 50 c-51 67 -130 139 -185 166 -42 21 -159 51 -171 44 -3 -2
-21 -6 -41 -9 -49 -8 -89 -23 -89 -35 0 -16 33 -29 60 -23 54 11 126 5 165
-15 44 -23 117 -90 161 -149 16 -22 35 -45 42 -52 6 -7 12 -15 12 -17 0 -2
-26 -11 -57 -20 -32 -9 -76 -28 -98 -42 -45 -28 -87 -81 -78 -97 4 -6 8 -6 11
2 2 7 12 12 22 12 10 0 21 4 24 9 15 23 166 24 166 1 0 -5 -28 -23 -62 -40
-125 -63 -203 -140 -226 -222 -6 -21 -8 -38 -6 -38 3 0 35 16 72 35 96 49 111
54 197 60 93 7 96 -2 23 -76 -106 -107 -198 -268 -198 -345 0 -25 0 -25 28 7
88 107 231 211 307 225 35 6 76 -12 69 -31 -3 -8 -11 -15 -16 -15 -14 0 -104
-75 -156 -130 -64 -67 -94 -122 -98 -181 l-3 -51 68 63 c85 80 89 82 140 109
46 23 135 38 144 23 3 -5 -11 -27 -32 -48 -99 -107 -190 -302 -182 -392 0 -7
1 -24 2 -38 2 -32 14 -24 40 28 58 112 175 229 289 287 24 12 24 12 8 -6 -20
-23 -78 -146 -78 -166 0 -8 -3 -18 -7 -22 -9 -8 -9 -12 -26 -119 -8 -48 -13
-100 -11 -115 1 -15 5 -53 8 -84 7 -68 43 -159 55 -139 5 7 5 28 1 47 -4 18
-6 35 -3 37 2 3 6 22 9 43 7 59 23 113 51 173 30 64 39 75 117 155 61 63 63
61 27 -32 -18 -48 -39 -133 -47 -187 -4 -26 -4 -174 0 -200 12 -80 71 -218
108 -252 20 -18 20 -18 14 19 -23 145 -25 219 -9 313 14 81 65 194 92 203 9 3
11 0 6 -9 -19 -29 -33 -160 -29 -264 4 -120 6 -138 24 -205 7 -25 14 -53 16
-63 5 -28 41 -123 65 -170 29 -57 92 -157 101 -157 3 0 0 24 -8 53 -8 28 -17
63 -20 77 -3 14 -9 41 -14 60 -43 176 -26 422 37 515 12 18 13 16 7 -20 -9
-57 -11 -183 -3 -230 4 -22 10 -56 13 -75 22 -146 104 -326 203 -448 35 -43
62 -58 45 -25 -17 32 -65 179 -78 238 -34 157 -38 312 -9 393 22 62 50 95 35
41 -60 -207 -4 -466 144 -667 49 -66 151 -172 166 -172 5 0 -8 28 -29 63 -98
161 -140 317 -134 495 1 53 4 105 6 114 4 23 17 35 18 17 8 -101 18 -161 39
-244 20 -73 28 -97 63 -175 48 -106 149 -215 241 -260 33 -16 62 -27 64 -25 2
1 -17 34 -41 71 -124 192 -179 369 -167 534 2 24 2 24 11 -5 5 -16 11 -43 14
-58 8 -39 49 -141 79 -191 70 -120 208 -233 332 -274 86 -29 112 -33 119 -22
3 5 2 10 -4 10 -10 0 -42 27 -126 106 -93 88 -180 224 -200 314 -8 33 -9 47
-6 103 1 12 14 -16 31 -62 16 -46 46 -108 66 -138 99 -144 280 -250 462 -269
28 -3 52 -3 52 -1 0 3 -28 20 -62 37 -200 101 -316 238 -323 381 -2 32 1 59 6
59 5 0 9 -7 9 -16 0 -9 16 -46 36 -83 65 -121 179 -207 306 -232 62 -11 154
-10 189 4 21 8 14 12 -59 32 -147 41 -241 103 -258 171 -19 74 28 183 89 209
18 7 73 20 123 29 51 9 129 28 175 43 46 15 86 27 89 28 3 0 28 11 55 24 28
13 77 32 110 43 33 11 78 27 99 36 74 32 302 149 322 166 10 9 22 15 25 14 3
-2 19 8 36 22 16 14 40 32 53 40 118 79 284 236 395 375 22 28 42 52 45 55 3
3 23 32 45 65 22 33 44 64 48 70 24 29 148 265 153 290 1 6 11 31 24 57 12 26
22 53 24 60 1 7 5 19 9 26 5 6 5 12 1 12 -3 0 -1 6 5 14 12 14 22 48 23 76 1
8 4 17 8 20 12 8 51 218 66 350 11 104 11 120 0 127 -6 3 -8 3 -4 -2 4 -4 1
-20 -8 -36 -8 -16 -12 -29 -9 -29 3 0 -1 -10 -9 -22 -8 -13 -16 -27 -16 -33
-2 -15 -80 -167 -101 -197 -11 -14 -19 -29 -19 -33 0 -6 -47 -73 -60 -85 -3
-3 -14 -18 -23 -33 -10 -16 -26 -38 -35 -49 -31 -37 -97 -111 -119 -134 -12
-12 -19 -25 -16 -28 4 -3 0 -6 -7 -6 -7 0 -41 -26 -75 -57 -34 -32 -74 -67
-89 -78 -15 -11 -35 -28 -44 -37 -9 -10 -20 -18 -25 -18 -4 0 -17 -9 -29 -20
-12 -11 -28 -20 -35 -20 -7 0 -13 -4 -13 -9 0 -5 -8 -11 -17 -15 -23 -7 -56
-28 -65 -41 -4 -5 -8 -7 -8 -3 0 4 -21 -6 -46 -22 -26 -16 -51 -27 -55 -24 -5
3 -9 0 -9 -7 0 -7 -3 -10 -6 -6 -3 3 -21 -3 -39 -13 -18 -10 -53 -25 -76 -34
-24 -8 -68 -24 -97 -35 -29 -11 -55 -20 -57 -20 -3 -1 -6 -1 -7 -2 -2 0 -10
-2 -18 -4 -8 -2 -26 -7 -40 -10 -33 -8 -70 -16 -95 -20 -69 -12 -93 -17 -115
-22 -36 -8 -429 -15 -442 -7 -5 3 -31 8 -56 10 -26 1 -59 5 -75 8 -73 14 -118
24 -137 29 -8 2 -32 7 -52 12 -41 8 -49 22 -20 32 28 11 114 78 153 119 88 95
155 228 185 369 11 49 5 204 -9 255 -29 100 -35 117 -62 166 -50 91 -177 234
-207 234 -4 0 -8 3 -8 8 0 4 -10 12 -23 19 -86 44 -154 75 -171 79 -12 2 -46
9 -76 15 -63 14 -255 12 -255 -1 0 -2 -9 -4 -20 -5 -35 -4 -158 -58 -215 -93
-91 -57 -180 -157 -234 -262 -27 -51 -50 -106 -53 -122 -12 -78 -17 -76 -71
18 -60 105 -122 236 -152 319 -26 72 -24 64 -55 195 -23 99 -28 125 -40 210
-14 94 -7 420 10 538 7 48 46 215 53 227 4 6 8 19 9 30 6 38 126 320 143 335
9 8 64 104 65 113 0 4 6 11 13 16 8 5 19 18 25 29 7 11 22 34 35 51 26 35 22
41 -8 11z m342 -1932 c34 -27 26 -81 -12 -89 -51 -10 -88 45 -55 81 21 23 44
25 67 8z m188 -216 c40 -39 43 -46 42 -110 -1 -104 -146 -160 -223 -86 -59 56
-58 146 3 200 30 27 44 32 95 33 36 1 48 -5 83 -37z"/>
<path d="M7853 4923 c-1 -24 -36 -117 -45 -121 -5 -2 -8 -11 -8 -19 0 -9 -29
-76 -64 -149 -36 -74 -62 -134 -58 -134 3 0 -3 -7 -14 -15 -10 -8 -14 -15 -9
-15 7 0 7 -3 0 -8 -5 -4 -23 -33 -40 -64 -42 -79 -157 -270 -171 -286 -7 -6
-16 -21 -19 -32 -3 -11 -10 -20 -14 -20 -4 0 -13 -11 -19 -24 -6 -14 -18 -33
-26 -43 -9 -10 -42 -56 -75 -103 -96 -135 -115 -160 -158 -207 -13 -13 -23
-26 -23 -29 0 -3 -6 -11 -12 -19 -7 -7 -29 -32 -48 -55 -172 -206 -416 -454
-615 -625 -32 -27 -71 -61 -87 -75 -15 -14 -34 -29 -41 -35 -7 -5 -38 -31 -69
-57 -31 -27 -61 -48 -66 -48 -6 0 -12 -4 -14 -8 -1 -4 -24 -23 -50 -42 -27
-18 -48 -37 -48 -42 0 -4 -7 -8 -15 -8 -8 0 -15 -4 -15 -10 0 -5 -7 -10 -15
-10 -8 0 -15 -4 -15 -9 0 -5 -8 -12 -17 -15 -10 -3 -34 -19 -53 -36 -19 -17
-43 -33 -52 -36 -10 -3 -18 -9 -18 -12 0 -4 -20 -18 -45 -32 -25 -14 -45 -28
-45 -31 0 -4 -13 -12 -30 -19 -16 -7 -30 -16 -30 -21 0 -5 -4 -9 -9 -9 -5 0
-51 -26 -102 -57 -50 -32 -94 -56 -97 -55 -3 2 -8 0 -11 -5 -12 -18 -68 -52
-75 -46 -3 3 -6 2 -6 -4 0 -6 -8 -13 -17 -17 -10 -3 -25 -10 -33 -15 -8 -6
-37 -22 -63 -37 -26 -14 -46 -28 -44 -30 5 -5 144 25 267 56 25 7 52 13 60 15
8 2 15 4 15 5 0 1 7 3 15 5 8 1 48 13 89 25 41 12 81 24 90 26 25 6 153 51
186 65 36 15 32 14 70 24 17 4 35 11 40 15 16 10 104 42 109 38 2 -2 13 5 25
16 11 10 29 20 38 21 32 4 63 17 63 26 0 5 9 9 20 9 11 0 20 5 20 10 0 6 9 10
20 10 11 0 20 5 20 12 0 6 2 9 5 6 4 -3 41 12 83 34 42 22 107 56 145 75 37
20 67 39 67 44 0 5 6 9 14 9 7 0 26 10 42 23 16 12 30 21 31 19 4 -3 142 88
149 99 3 5 10 7 15 4 5 -4 9 -2 9 3 0 6 15 19 33 31 57 36 71 46 84 56 24 19
38 30 78 60 60 44 65 48 91 72 13 12 30 26 38 30 93 53 506 476 656 673 14 18
37 47 53 65 15 18 27 36 27 40 0 4 10 16 22 26 11 11 18 19 14 19 -4 0 5 17
21 38 41 53 103 150 103 161 0 5 7 14 15 21 16 14 20 56 6 64 -5 3 -12 17 -15
31 -4 14 -18 51 -32 83 -15 31 -34 73 -42 92 -9 19 -16 37 -17 40 0 3 -8 22
-19 44 -10 21 -19 44 -20 50 -1 6 -7 20 -13 31 -6 11 -27 61 -48 110 -20 50
-42 99 -48 110 -6 11 -12 22 -12 25 0 3 -13 35 -29 73 -28 64 -51 86 -53 50z"/>
</g>
</svg>
